  0
SECTION
  2
BLOCKS
  0
ENDSEC
  0
SECTION
  2
ENTITIES
  0
LINE
  8
0
 10
-39.75
 11
-39.672
 20
0.25
 21
2.746
  0
LINE
  8
0
 10
-39.672
 11
-39.437
 20
2.746
 21
5.232
  0
LINE
  8
0
 10
-39.437
 11
-39.046
 20
5.232
 21
7.698
  0
LINE
  8
0
 10
-39.046
 11
-38.501
 20
7.698
 21
10.135
  0
LINE
  8
0
 10
-38.501
 11
-37.804
 20
10.135
 21
12.533
  0
LINE
  8
0
 10
-37.804
 11
-36.959
 20
12.533
 21
14.883
  0
LINE
  8
0
 10
-36.959
 11
-35.967
 20
14.883
 21
17.175
  0
LINE
  8
0
 10
-35.967
 11
-34.833
 20
17.175
 21
19.4
  0
LINE
  8
0
 10
-34.833
 11
-33.562
 20
19.4
 21
21.549
  0
LINE
  8
0
 10
-33.562
 11
-32.158
 20
21.549
 21
23.614
  0
LINE
  8
0
 10
-32.158
 11
-30.628
 20
23.614
 21
25.588
  0
LINE
  8
0
 10
-30.628
 11
-28.977
 20
25.588
 21
27.461
  0
LINE
  8
0
 10
-28.977
 11
-27.211
 20
27.461
 21
29.227
  0
LINE
  8
0
 10
-27.211
 11
-25.338
 20
29.227
 21
30.878
  0
LINE
  8
0
 10
-25.338
 11
-23.364
 20
30.878
 21
32.408
  0
LINE
  8
0
 10
-23.364
 11
-21.299
 20
32.408
 21
33.812
  0
LINE
  8
0
 10
-21.299
 11
-19.15
 20
33.812
 21
35.083
  0
LINE
  8
0
 10
-19.15
 11
-16.925
 20
35.083
 21
36.217
  0
LINE
  8
0
 10
-16.925
 11
-14.633
 20
36.217
 21
37.209
  0
LINE
  8
0
 10
-14.633
 11
-12.283
 20
37.209
 21
38.054
  0
LINE
  8
0
 10
-12.283
 11
-9.885
 20
38.054
 21
38.751
  0
LINE
  8
0
 10
-9.885
 11
-7.448
 20
38.751
 21
39.296
  0
LINE
  8
0
 10
-7.448
 11
-4.982
 20
39.296
 21
39.687
  0
LINE
  8
0
 10
-4.982
 11
-2.496
 20
39.687
 21
39.922
  0
LINE
  8
0
 10
-2.496
 11
-0.5
 20
39.922
 21
39.984
  0
LINE
  8
0
 10
-0.5
 11
-0.5
 20
39.984
 21
38
  0
LINE
  8
0
 10
-0.5
 11
0.5
 20
38
 21
38
  0
LINE
  8
0
 10
0.5
 11
0.5
 20
38
 21
40.007
  0
LINE
  8
0
 10
0.5
 11
1.852
 20
40.007
 21
40.026
  0
LINE
  8
0
 10
1.852
 11
3.688
 20
40.026
 21
40.042
  0
LINE
  8
0
 10
3.688
 11
5.507
 20
40.042
 21
40.05
  0
LINE
  8
0
 10
5.507
 11
7.311
 20
40.05
 21
40.05
  0
LINE
  8
0
 10
7.311
 11
9.098
 20
40.05
 21
40.041
  0
LINE
  8
0
 10
9.098
 11
10.869
 20
40.041
 21
40.023
  0
LINE
  8
0
 10
10.869
 11
12.625
 20
40.023
 21
39.998
  0
LINE
  8
0
 10
12.625
 11
14.364
 20
39.998
 21
39.965
  0
LINE
  8
0
 10
14.364
 11
16.088
 20
39.965
 21
39.924
  0
LINE
  8
0
 10
16.088
 11
17.795
 20
39.924
 21
39.875
  0
LINE
  8
0
 10
17.795
 11
19.487
 20
39.875
 21
39.819
  0
LINE
  8
0
 10
19.487
 11
21.162
 20
39.819
 21
39.755
  0
LINE
  8
0
 10
21.162
 11
22.822
 20
39.755
 21
39.684
  0
LINE
  8
0
 10
22.822
 11
24.466
 20
39.684
 21
39.607
  0
LINE
  8
0
 10
24.466
 11
26.094
 20
39.607
 21
39.522
  0
LINE
  8
0
 10
26.094
 11
27.707
 20
39.522
 21
39.43
  0
LINE
  8
0
 10
27.707
 11
29.304
 20
39.43
 21
39.332
  0
LINE
  8
0
 10
29.304
 11
30.885
 20
39.332
 21
39.228
  0
LINE
  8
0
 10
30.885
 11
32.45
 20
39.228
 21
39.117
  0
LINE
  8
0
 10
32.45
 11
34
 20
39.117
 21
39
  0
LINE
  8
0
 10
34
 11
35.534
 20
39
 21
38.877
  0
LINE
  8
0
 10
35.534
 11
37.053
 20
38.877
 21
38.748
  0
LINE
  8
0
 10
37.053
 11
38.556
 20
38.748
 21
38.614
  0
LINE
  8
0
 10
38.556
 11
40.044
 20
38.614
 21
38.474
  0
LINE
  8
0
 10
40.044
 11
41.516
 20
38.474
 21
38.328
  0
LINE
  8
0
 10
41.516
 11
42.972
 20
38.328
 21
38.177
  0
LINE
  8
0
 10
42.972
 11
44.414
 20
38.177
 21
38.022
  0
LINE
  8
0
 10
44.414
 11
45.839
 20
38.022
 21
37.861
  0
LINE
  8
0
 10
45.839
 11
47.25
 20
37.861
 21
37.695
  0
LINE
  8
0
 10
47.25
 11
48.645
 20
37.695
 21
37.525
  0
LINE
  8
0
 10
48.645
 11
50.025
 20
37.525
 21
37.35
  0
LINE
  8
0
 10
50.025
 11
51.389
 20
37.35
 21
37.171
  0
LINE
  8
0
 10
51.389
 11
52.739
 20
37.171
 21
36.988
  0
LINE
  8
0
 10
52.739
 11
54.073
 20
36.988
 21
36.801
  0
LINE
  8
0
 10
54.073
 11
55.392
 20
36.801
 21
36.609
  0
LINE
  8
0
 10
55.392
 11
56.696
 20
36.609
 21
36.414
  0
LINE
  8
0
 10
56.696
 11
57.984
 20
36.414
 21
36.216
  0
LINE
  8
0
 10
57.984
 11
59.258
 20
36.216
 21
36.014
  0
LINE
  8
0
 10
59.258
 11
60.516
 20
36.014
 21
35.808
  0
LINE
  8
0
 10
60.516
 11
61.76
 20
35.808
 21
35.6
  0
LINE
  8
0
 10
61.76
 11
62.989
 20
35.6
 21
35.389
  0
LINE
  8
0
 10
62.989
 11
64.202
 20
35.389
 21
35.174
  0
LINE
  8
0
 10
64.202
 11
65.401
 20
35.174
 21
34.957
  0
LINE
  8
0
 10
65.401
 11
66.584
 20
34.957
 21
34.738
  0
LINE
  8
0
 10
66.584
 11
67.753
 20
34.738
 21
34.516
  0
LINE
  8
0
 10
67.753
 11
68.907
 20
34.516
 21
34.291
  0
LINE
  8
0
 10
68.907
 11
70.046
 20
34.291
 21
34.065
  0
LINE
  8
0
 10
70.046
 11
71.171
 20
34.065
 21
33.837
  0
LINE
  8
0
 10
71.171
 11
72.28
 20
33.837
 21
33.607
  0
LINE
  8
0
 10
72.28
 11
73.375
 20
33.607
 21
33.375
  0
LINE
  8
0
 10
73.375
 11
74.455
 20
33.375
 21
33.142
  0
LINE
  8
0
 10
74.455
 11
75.521
 20
33.142
 21
32.907
  0
LINE
  8
0
 10
75.521
 11
76.571
 20
32.907
 21
32.671
  0
LINE
  8
0
 10
76.571
 11
77.608
 20
32.671
 21
32.435
  0
LINE
  8
0
 10
77.608
 11
78.629
 20
32.435
 21
32.197
  0
LINE
  8
0
 10
78.629
 11
79.636
 20
32.197
 21
31.958
  0
LINE
  8
0
 10
79.636
 11
80.629
 20
31.958
 21
31.719
  0
LINE
  8
0
 10
80.629
 11
81.607
 20
31.719
 21
31.48
  0
LINE
  8
0
 10
81.607
 11
82.571
 20
31.48
 21
31.24
  0
LINE
  8
0
 10
82.571
 11
83.52
 20
31.24
 21
31
  0
LINE
  8
0
 10
83.52
 11
84.455
 20
31
 21
30.76
  0
LINE
  8
0
 10
84.455
 11
85.375
 20
30.76
 21
30.52
  0
LINE
  8
0
 10
85.375
 11
86.281
 20
30.52
 21
30.281
  0
LINE
  8
0
 10
86.281
 11
87.173
 20
30.281
 21
30.042
  0
LINE
  8
0
 10
87.173
 11
88.051
 20
30.042
 21
29.803
  0
LINE
  8
0
 10
88.051
 11
88.914
 20
29.803
 21
29.565
  0
LINE
  8
0
 10
88.914
 11
89.763
 20
29.565
 21
29.329
  0
LINE
  8
0
 10
89.763
 11
90.598
 20
29.329
 21
29.093
  0
LINE
  8
0
 10
90.598
 11
91.418
 20
29.093
 21
28.858
  0
LINE
  8
0
 10
91.418
 11
92.225
 20
28.858
 21
28.625
  0
LINE
  8
0
 10
92.225
 11
93.017
 20
28.625
 21
28.393
  0
LINE
  8
0
 10
93.017
 11
93.796
 20
28.393
 21
28.163
  0
LINE
  8
0
 10
93.796
 11
94.56
 20
28.163
 21
27.935
  0
LINE
  8
0
 10
94.56
 11
95.311
 20
27.935
 21
27.709
  0
LINE
  8
0
 10
95.311
 11
96.047
 20
27.709
 21
27.484
  0
LINE
  8
0
 10
96.047
 11
96.769
 20
27.484
 21
27.262
  0
LINE
  8
0
 10
96.769
 11
97.478
 20
27.262
 21
27.043
  0
LINE
  8
0
 10
97.478
 11
98.172
 20
27.043
 21
26.826
  0
LINE
  8
0
 10
98.172
 11
98.853
 20
26.826
 21
26.611
  0
LINE
  8
0
 10
98.853
 11
99.52
 20
26.611
 21
26.4
  0
LINE
  8
0
 10
99.52
 11
100.173
 20
26.4
 21
26.192
  0
LINE
  8
0
 10
100.173
 11
100.812
 20
26.192
 21
25.986
  0
LINE
  8
0
 10
100.812
 11
101.438
 20
25.986
 21
25.784
  0
LINE
  8
0
 10
101.438
 11
102.05
 20
25.784
 21
25.586
  0
LINE
  8
0
 10
102.05
 11
102.648
 20
25.586
 21
25.391
  0
LINE
  8
0
 10
102.648
 11
103.233
 20
25.391
 21
25.199
  0
LINE
  8
0
 10
103.233
 11
103.804
 20
25.199
 21
25.012
  0
LINE
  8
0
 10
103.804
 11
104.361
 20
25.012
 21
24.829
  0
LINE
  8
0
 10
104.361
 11
104.905
 20
24.829
 21
24.65
  0
LINE
  8
0
 10
104.905
 11
105.435
 20
24.65
 21
24.475
  0
LINE
  8
0
 10
105.435
 11
105.952
 20
24.475
 21
24.305
  0
LINE
  8
0
 10
105.952
 11
106.455
 20
24.305
 21
24.139
  0
LINE
  8
0
 10
106.455
 11
106.945
 20
24.139
 21
23.978
  0
LINE
  8
0
 10
106.945
 11
107.421
 20
23.978
 21
23.823
  0
LINE
  8
0
 10
107.421
 11
107.884
 20
23.823
 21
23.672
  0
LINE
  8
0
 10
107.884
 11
108.334
 20
23.672
 21
23.526
  0
LINE
  8
0
 10
108.334
 11
108.77
 20
23.526
 21
23.386
  0
LINE
  8
0
 10
108.77
 11
109.194
 20
23.386
 21
23.252
  0
LINE
  8
0
 10
109.194
 11
109.603
 20
23.252
 21
23.123
  0
LINE
  8
0
 10
109.603
 11
110
 20
23.123
 21
23
  0
LINE
  8
0
 10
110
 11
110.03
 20
23
 21
22.985
  0
LINE
  8
0
 10
110.03
 11
110.06
 20
22.985
 21
22.969
  0
LINE
  8
0
 10
110.06
 11
110.15
 20
22.969
 21
22.918
  0
LINE
  8
0
 10
110.15
 11
110.18
 20
22.918
 21
22.899
  0
LINE
  8
0
 10
110.18
 11
110.21
 20
22.899
 21
22.88
  0
LINE
  8
0
 10
110.21
 11
110.239
 20
22.88
 21
22.861
  0
LINE
  8
0
 10
110.239
 11
110.299
 20
22.861
 21
22.821
  0
LINE
  8
0
 10
110.299
 11
110.329
 20
22.821
 21
22.799
  0
LINE
  8
0
 10
110.329
 11
110.358
 20
22.799
 21
22.778
  0
LINE
  8
0
 10
110.358
 11
110.388
 20
22.778
 21
22.755
  0
LINE
  8
0
 10
110.388
 11
110.417
 20
22.755
 21
22.733
  0
LINE
  8
0
 10
110.417
 11
110.447
 20
22.733
 21
22.709
  0
LINE
  8
0
 10
110.447
 11
110.476
 20
22.709
 21
22.685
  0
LINE
  8
0
 10
110.476
 11
110.505
 20
22.685
 21
22.661
  0
LINE
  8
0
 10
110.505
 11
110.534
 20
22.661
 21
22.636
  0
LINE
  8
0
 10
110.534
 11
110.592
 20
22.636
 21
22.584
  0
LINE
  8
0
 10
110.592
 11
110.621
 20
22.584
 21
22.557
  0
LINE
  8
0
 10
110.621
 11
110.649
 20
22.557
 21
22.53
  0
LINE
  8
0
 10
110.649
 11
110.678
 20
22.53
 21
22.502
  0
LINE
  8
0
 10
110.678
 11
110.706
 20
22.502
 21
22.474
  0
LINE
  8
0
 10
110.706
 11
110.762
 20
22.474
 21
22.416
  0
LINE
  8
0
 10
110.762
 11
110.79
 20
22.416
 21
22.386
  0
LINE
  8
0
 10
110.79
 11
110.818
 20
22.386
 21
22.356
  0
LINE
  8
0
 10
110.818
 11
110.846
 20
22.356
 21
22.325
  0
LINE
  8
0
 10
110.846
 11
110.873
 20
22.325
 21
22.293
  0
LINE
  8
0
 10
110.873
 11
110.9
 20
22.293
 21
22.262
  0
LINE
  8
0
 10
110.9
 11
110.954
 20
22.262
 21
22.196
  0
LINE
  8
0
 10
110.954
 11
110.981
 20
22.196
 21
22.163
  0
LINE
  8
0
 10
110.981
 11
111.007
 20
22.163
 21
22.129
  0
LINE
  8
0
 10
111.007
 11
111.033
 20
22.129
 21
22.095
  0
LINE
  8
0
 10
111.033
 11
111.059
 20
22.095
 21
22.06
  0
LINE
  8
0
 10
111.059
 11
111.085
 20
22.06
 21
22.024
  0
LINE
  8
0
 10
111.085
 11
111.111
 20
22.024
 21
21.988
  0
LINE
  8
0
 10
111.111
 11
111.136
 20
21.988
 21
21.952
  0
LINE
  8
0
 10
111.136
 11
111.161
 20
21.952
 21
21.915
  0
LINE
  8
0
 10
111.161
 11
111.186
 20
21.915
 21
21.878
  0
LINE
  8
0
 10
111.186
 11
111.21
 20
21.878
 21
21.84
  0
LINE
  8
0
 10
111.21
 11
111.235
 20
21.84
 21
21.802
  0
LINE
  8
0
 10
111.235
 11
111.259
 20
21.802
 21
21.763
  0
LINE
  8
0
 10
111.259
 11
111.283
 20
21.763
 21
21.724
  0
LINE
  8
0
 10
111.283
 11
111.306
 20
21.724
 21
21.684
  0
LINE
  8
0
 10
111.306
 11
111.352
 20
21.684
 21
21.604
  0
LINE
  8
0
 10
111.352
 11
111.375
 20
21.604
 21
21.563
  0
LINE
  8
0
 10
111.375
 11
111.397
 20
21.563
 21
21.521
  0
LINE
  8
0
 10
111.397
 11
111.419
 20
21.521
 21
21.479
  0
LINE
  8
0
 10
111.419
 11
111.441
 20
21.479
 21
21.437
  0
LINE
  8
0
 10
111.441
 11
111.463
 20
21.437
 21
21.394
  0
LINE
  8
0
 10
111.463
 11
111.484
 20
21.394
 21
21.351
  0
LINE
  8
0
 10
111.484
 11
111.504
 20
21.351
 21
21.307
  0
LINE
  8
0
 10
111.504
 11
111.525
 20
21.307
 21
21.263
  0
LINE
  8
0
 10
111.525
 11
111.545
 20
21.263
 21
21.218
  0
LINE
  8
0
 10
111.545
 11
111.565
 20
21.218
 21
21.173
  0
LINE
  8
0
 10
111.565
 11
111.584
 20
21.173
 21
21.128
  0
LINE
  8
0
 10
111.584
 11
111.603
 20
21.128
 21
21.082
  0
LINE
  8
0
 10
111.603
 11
111.622
 20
21.082
 21
21.036
  0
LINE
  8
0
 10
111.622
 11
111.658
 20
21.036
 21
20.942
  0
LINE
  8
0
 10
111.658
 11
111.675
 20
20.942
 21
20.895
  0
LINE
  8
0
 10
111.675
 11
111.693
 20
20.895
 21
20.847
  0
LINE
  8
0
 10
111.693
 11
111.709
 20
20.847
 21
20.799
  0
LINE
  8
0
 10
111.709
 11
111.726
 20
20.799
 21
20.75
  0
LINE
  8
0
 10
111.726
 11
111.741
 20
20.75
 21
20.701
  0
LINE
  8
0
 10
111.741
 11
111.757
 20
20.701
 21
20.652
  0
LINE
  8
0
 10
111.757
 11
111.772
 20
20.652
 21
20.602
  0
LINE
  8
0
 10
111.772
 11
111.787
 20
20.602
 21
20.551
  0
LINE
  8
0
 10
111.787
 11
111.801
 20
20.551
 21
20.501
  0
LINE
  8
0
 10
111.801
 11
111.815
 20
20.501
 21
20.45
  0
LINE
  8
0
 10
111.815
 11
111.828
 20
20.45
 21
20.398
  0
LINE
  8
0
 10
111.828
 11
111.841
 20
20.398
 21
20.347
  0
LINE
  8
0
 10
111.841
 11
111.853
 20
20.347
 21
20.295
  0
LINE
  8
0
 10
111.853
 11
111.865
 20
20.295
 21
20.242
  0
LINE
  8
0
 10
111.865
 11
111.877
 20
20.242
 21
20.189
  0
LINE
  8
0
 10
111.877
 11
111.888
 20
20.189
 21
20.136
  0
LINE
  8
0
 10
111.888
 11
111.899
 20
20.136
 21
20.082
  0
LINE
  8
0
 10
111.899
 11
111.909
 20
20.082
 21
20.028
  0
LINE
  8
0
 10
111.909
 11
111.927
 20
20.028
 21
19.92
  0
LINE
  8
0
 10
111.927
 11
111.936
 20
19.92
 21
19.865
  0
LINE
  8
0
 10
111.936
 11
111.944
 20
19.865
 21
19.809
  0
LINE
  8
0
 10
111.944
 11
111.951
 20
19.809
 21
19.754
  0
LINE
  8
0
 10
111.951
 11
111.959
 20
19.754
 21
19.698
  0
LINE
  8
0
 10
111.959
 11
111.965
 20
19.698
 21
19.641
  0
LINE
  8
0
 10
111.965
 11
111.971
 20
19.641
 21
19.584
  0
LINE
  8
0
 10
111.971
 11
111.976
 20
19.584
 21
19.527
  0
LINE
  8
0
 10
111.976
 11
111.981
 20
19.527
 21
19.47
  0
LINE
  8
0
 10
111.981
 11
111.986
 20
19.47
 21
19.412
  0
LINE
  8
0
 10
111.986
 11
111.989
 20
19.412
 21
19.354
  0
LINE
  8
0
 10
111.989
 11
111.993
 20
19.354
 21
19.296
  0
LINE
  8
0
 10
111.993
 11
111.995
 20
19.296
 21
19.238
  0
LINE
  8
0
 10
111.995
 11
111.997
 20
19.238
 21
19.179
  0
LINE
  8
0
 10
111.997
 11
111.999
 20
19.179
 21
19.119
  0
LINE
  8
0
 10
111.999
 11
112
 20
19.119
 21
19.06
  0
LINE
  8
0
 10
112
 11
112
 20
19.06
 21
-18.56
  0
LINE
  8
0
 10
112
 11
111.999
 20
-18.56
 21
-18.619
  0
LINE
  8
0
 10
111.999
 11
111.997
 20
-18.619
 21
-18.679
  0
LINE
  8
0
 10
111.997
 11
111.995
 20
-18.679
 21
-18.738
  0
LINE
  8
0
 10
111.995
 11
111.993
 20
-18.738
 21
-18.796
  0
LINE
  8
0
 10
111.993
 11
111.989
 20
-18.796
 21
-18.854
  0
LINE
  8
0
 10
111.989
 11
111.986
 20
-18.854
 21
-18.912
  0
LINE
  8
0
 10
111.986
 11
111.981
 20
-18.912
 21
-18.97
  0
LINE
  8
0
 10
111.981
 11
111.976
 20
-18.97
 21
-19.027
  0
LINE
  8
0
 10
111.976
 11
111.971
 20
-19.027
 21
-19.084
  0
LINE
  8
0
 10
111.971
 11
111.965
 20
-19.084
 21
-19.141
  0
LINE
  8
0
 10
111.965
 11
111.959
 20
-19.141
 21
-19.198
  0
LINE
  8
0
 10
111.959
 11
111.951
 20
-19.198
 21
-19.254
  0
LINE
  8
0
 10
111.951
 11
111.944
 20
-19.254
 21
-19.309
  0
LINE
  8
0
 10
111.944
 11
111.936
 20
-19.309
 21
-19.365
  0
LINE
  8
0
 10
111.936
 11
111.927
 20
-19.365
 21
-19.42
  0
LINE
  8
0
 10
111.927
 11
111.909
 20
-19.42
 21
-19.528
  0
LINE
  8
0
 10
111.909
 11
111.899
 20
-19.528
 21
-19.582
  0
LINE
  8
0
 10
111.899
 11
111.888
 20
-19.582
 21
-19.636
  0
LINE
  8
0
 10
111.888
 11
111.877
 20
-19.636
 21
-19.689
  0
LINE
  8
0
 10
111.877
 11
111.865
 20
-19.689
 21
-19.742
  0
LINE
  8
0
 10
111.865
 11
111.853
 20
-19.742
 21
-19.795
  0
LINE
  8
0
 10
111.853
 11
111.841
 20
-19.795
 21
-19.847
  0
LINE
  8
0
 10
111.841
 11
111.828
 20
-19.847
 21
-19.898
  0
LINE
  8
0
 10
111.828
 11
111.815
 20
-19.898
 21
-19.95
  0
LINE
  8
0
 10
111.815
 11
111.801
 20
-19.95
 21
-20.001
  0
LINE
  8
0
 10
111.801
 11
111.787
 20
-20.001
 21
-20.051
  0
LINE
  8
0
 10
111.787
 11
111.772
 20
-20.051
 21
-20.102
  0
LINE
  8
0
 10
111.772
 11
111.757
 20
-20.102
 21
-20.152
  0
LINE
  8
0
 10
111.757
 11
111.741
 20
-20.152
 21
-20.201
  0
LINE
  8
0
 10
111.741
 11
111.726
 20
-20.201
 21
-20.25
  0
LINE
  8
0
 10
111.726
 11
111.709
 20
-20.25
 21
-20.299
  0
LINE
  8
0
 10
111.709
 11
111.693
 20
-20.299
 21
-20.347
  0
LINE
  8
0
 10
111.693
 11
111.675
 20
-20.347
 21
-20.395
  0
LINE
  8
0
 10
111.675
 11
111.658
 20
-20.395
 21
-20.442
  0
LINE
  8
0
 10
111.658
 11
111.622
 20
-20.442
 21
-20.536
  0
LINE
  8
0
 10
111.622
 11
111.603
 20
-20.536
 21
-20.582
  0
LINE
  8
0
 10
111.603
 11
111.584
 20
-20.582
 21
-20.628
  0
LINE
  8
0
 10
111.584
 11
111.565
 20
-20.628
 21
-20.673
  0
LINE
  8
0
 10
111.565
 11
111.545
 20
-20.673
 21
-20.718
  0
LINE
  8
0
 10
111.545
 11
111.525
 20
-20.718
 21
-20.763
  0
LINE
  8
0
 10
111.525
 11
111.504
 20
-20.763
 21
-20.807
  0
LINE
  8
0
 10
111.504
 11
111.484
 20
-20.807
 21
-20.851
  0
LINE
  8
0
 10
111.484
 11
111.463
 20
-20.851
 21
-20.894
  0
LINE
  8
0
 10
111.463
 11
111.441
 20
-20.894
 21
-20.937
  0
LINE
  8
0
 10
111.441
 11
111.419
 20
-20.937
 21
-20.979
  0
LINE
  8
0
 10
111.419
 11
111.397
 20
-20.979
 21
-21.021
  0
LINE
  8
0
 10
111.397
 11
111.375
 20
-21.021
 21
-21.063
  0
LINE
  8
0
 10
111.375
 11
111.352
 20
-21.063
 21
-21.104
  0
LINE
  8
0
 10
111.352
 11
111.306
 20
-21.104
 21
-21.184
  0
LINE
  8
0
 10
111.306
 11
111.283
 20
-21.184
 21
-21.224
  0
LINE
  8
0
 10
111.283
 11
111.259
 20
-21.224
 21
-21.263
  0
LINE
  8
0
 10
111.259
 11
111.235
 20
-21.263
 21
-21.302
  0
LINE
  8
0
 10
111.235
 11
111.21
 20
-21.302
 21
-21.34
  0
LINE
  8
0
 10
111.21
 11
111.186
 20
-21.34
 21
-21.378
  0
LINE
  8
0
 10
111.186
 11
111.161
 20
-21.378
 21
-21.415
  0
LINE
  8
0
 10
111.161
 11
111.136
 20
-21.415
 21
-21.452
  0
LINE
  8
0
 10
111.136
 11
111.111
 20
-21.452
 21
-21.488
  0
LINE
  8
0
 10
111.111
 11
111.085
 20
-21.488
 21
-21.524
  0
LINE
  8
0
 10
111.085
 11
111.059
 20
-21.524
 21
-21.56
  0
LINE
  8
0
 10
111.059
 11
111.033
 20
-21.56
 21
-21.595
  0
LINE
  8
0
 10
111.033
 11
111.007
 20
-21.595
 21
-21.629
  0
LINE
  8
0
 10
111.007
 11
110.981
 20
-21.629
 21
-21.663
  0
LINE
  8
0
 10
110.981
 11
110.954
 20
-21.663
 21
-21.696
  0
LINE
  8
0
 10
110.954
 11
110.9
 20
-21.696
 21
-21.762
  0
LINE
  8
0
 10
110.9
 11
110.873
 20
-21.762
 21
-21.793
  0
LINE
  8
0
 10
110.873
 11
110.846
 20
-21.793
 21
-21.825
  0
LINE
  8
0
 10
110.846
 11
110.818
 20
-21.825
 21
-21.856
  0
LINE
  8
0
 10
110.818
 11
110.79
 20
-21.856
 21
-21.886
  0
LINE
  8
0
 10
110.79
 11
110.762
 20
-21.886
 21
-21.916
  0
LINE
  8
0
 10
110.762
 11
110.706
 20
-21.916
 21
-21.974
  0
LINE
  8
0
 10
110.706
 11
110.678
 20
-21.974
 21
-22.002
  0
LINE
  8
0
 10
110.678
 11
110.649
 20
-22.002
 21
-22.03
  0
LINE
  8
0
 10
110.649
 11
110.621
 20
-22.03
 21
-22.057
  0
LINE
  8
0
 10
110.621
 11
110.592
 20
-22.057
 21
-22.084
  0
LINE
  8
0
 10
110.592
 11
110.534
 20
-22.084
 21
-22.136
  0
LINE
  8
0
 10
110.534
 11
110.505
 20
-22.136
 21
-22.161
  0
LINE
  8
0
 10
110.505
 11
110.476
 20
-22.161
 21
-22.185
  0
LINE
  8
0
 10
110.476
 11
110.447
 20
-22.185
 21
-22.209
  0
LINE
  8
0
 10
110.447
 11
110.417
 20
-22.209
 21
-22.233
  0
LINE
  8
0
 10
110.417
 11
110.388
 20
-22.233
 21
-22.255
  0
LINE
  8
0
 10
110.388
 11
110.358
 20
-22.255
 21
-22.278
  0
LINE
  8
0
 10
110.358
 11
110.329
 20
-22.278
 21
-22.299
  0
LINE
  8
0
 10
110.329
 11
110.299
 20
-22.299
 21
-22.321
  0
LINE
  8
0
 10
110.299
 11
110.239
 20
-22.321
 21
-22.361
  0
LINE
  8
0
 10
110.239
 11
110.21
 20
-22.361
 21
-22.38
  0
LINE
  8
0
 10
110.21
 11
110.18
 20
-22.38
 21
-22.399
  0
LINE
  8
0
 10
110.18
 11
110.15
 20
-22.399
 21
-22.418
  0
LINE
  8
0
 10
110.15
 11
110.06
 20
-22.418
 21
-22.469
  0
LINE
  8
0
 10
110.06
 11
110.03
 20
-22.469
 21
-22.485
  0
LINE
  8
0
 10
110.03
 11
110
 20
-22.485
 21
-22.5
  0
LINE
  8
0
 10
110
 11
109.603
 20
-22.5
 21
-22.623
  0
LINE
  8
0
 10
109.603
 11
109.194
 20
-22.623
 21
-22.752
  0
LINE
  8
0
 10
109.194
 11
108.77
 20
-22.752
 21
-22.886
  0
LINE
  8
0
 10
108.77
 11
108.334
 20
-22.886
 21
-23.026
  0
LINE
  8
0
 10
108.334
 11
107.884
 20
-23.026
 21
-23.172
  0
LINE
  8
0
 10
107.884
 11
107.421
 20
-23.172
 21
-23.323
  0
LINE
  8
0
 10
107.421
 11
106.945
 20
-23.323
 21
-23.478
  0
LINE
  8
0
 10
106.945
 11
106.455
 20
-23.478
 21
-23.639
  0
LINE
  8
0
 10
106.455
 11
105.952
 20
-23.639
 21
-23.805
  0
LINE
  8
0
 10
105.952
 11
105.435
 20
-23.805
 21
-23.975
  0
LINE
  8
0
 10
105.435
 11
104.905
 20
-23.975
 21
-24.15
  0
LINE
  8
0
 10
104.905
 11
104.361
 20
-24.15
 21
-24.329
  0
LINE
  8
0
 10
104.361
 11
103.804
 20
-24.329
 21
-24.512
  0
LINE
  8
0
 10
103.804
 11
103.233
 20
-24.512
 21
-24.699
  0
LINE
  8
0
 10
103.233
 11
102.648
 20
-24.699
 21
-24.891
  0
LINE
  8
0
 10
102.648
 11
102.05
 20
-24.891
 21
-25.086
  0
LINE
  8
0
 10
102.05
 11
101.438
 20
-25.086
 21
-25.284
  0
LINE
  8
0
 10
101.438
 11
100.812
 20
-25.284
 21
-25.486
  0
LINE
  8
0
 10
100.812
 11
100.173
 20
-25.486
 21
-25.692
  0
LINE
  8
0
 10
100.173
 11
99.52
 20
-25.692
 21
-25.9
  0
LINE
  8
0
 10
99.52
 11
98.853
 20
-25.9
 21
-26.111
  0
LINE
  8
0
 10
98.853
 11
98.172
 20
-26.111
 21
-26.326
  0
LINE
  8
0
 10
98.172
 11
97.478
 20
-26.326
 21
-26.543
  0
LINE
  8
0
 10
97.478
 11
96.769
 20
-26.543
 21
-26.762
  0
LINE
  8
0
 10
96.769
 11
96.047
 20
-26.762
 21
-26.984
  0
LINE
  8
0
 10
96.047
 11
95.311
 20
-26.984
 21
-27.209
  0
LINE
  8
0
 10
95.311
 11
94.56
 20
-27.209
 21
-27.435
  0
LINE
  8
0
 10
94.56
 11
93.796
 20
-27.435
 21
-27.663
  0
LINE
  8
0
 10
93.796
 11
93.017
 20
-27.663
 21
-27.893
  0
LINE
  8
0
 10
93.017
 11
92.225
 20
-27.893
 21
-28.125
  0
LINE
  8
0
 10
92.225
 11
91.418
 20
-28.125
 21
-28.358
  0
LINE
  8
0
 10
91.418
 11
90.598
 20
-28.358
 21
-28.593
  0
LINE
  8
0
 10
90.598
 11
89.763
 20
-28.593
 21
-28.829
  0
LINE
  8
0
 10
89.763
 11
88.914
 20
-28.829
 21
-29.065
  0
LINE
  8
0
 10
88.914
 11
88.051
 20
-29.065
 21
-29.303
  0
LINE
  8
0
 10
88.051
 11
87.173
 20
-29.303
 21
-29.542
  0
LINE
  8
0
 10
87.173
 11
86.281
 20
-29.542
 21
-29.781
  0
LINE
  8
0
 10
86.281
 11
85.375
 20
-29.781
 21
-30.02
  0
LINE
  8
0
 10
85.375
 11
84.455
 20
-30.02
 21
-30.26
  0
LINE
  8
0
 10
84.455
 11
83.52
 20
-30.26
 21
-30.5
  0
LINE
  8
0
 10
83.52
 11
82.571
 20
-30.5
 21
-30.74
  0
LINE
  8
0
 10
82.571
 11
81.607
 20
-30.74
 21
-30.98
  0
LINE
  8
0
 10
81.607
 11
80.629
 20
-30.98
 21
-31.219
  0
LINE
  8
0
 10
80.629
 11
79.636
 20
-31.219
 21
-31.458
  0
LINE
  8
0
 10
79.636
 11
78.629
 20
-31.458
 21
-31.697
  0
LINE
  8
0
 10
78.629
 11
77.608
 20
-31.697
 21
-31.935
  0
LINE
  8
0
 10
77.608
 11
76.571
 20
-31.935
 21
-32.171
  0
LINE
  8
0
 10
76.571
 11
75.521
 20
-32.171
 21
-32.407
  0
LINE
  8
0
 10
75.521
 11
74.455
 20
-32.407
 21
-32.642
  0
LINE
  8
0
 10
74.455
 11
73.375
 20
-32.642
 21
-32.875
  0
LINE
  8
0
 10
73.375
 11
72.28
 20
-32.875
 21
-33.107
  0
LINE
  8
0
 10
72.28
 11
71.171
 20
-33.107
 21
-33.337
  0
LINE
  8
0
 10
71.171
 11
70.046
 20
-33.337
 21
-33.565
  0
LINE
  8
0
 10
70.046
 11
68.907
 20
-33.565
 21
-33.791
  0
LINE
  8
0
 10
68.907
 11
67.753
 20
-33.791
 21
-34.016
  0
LINE
  8
0
 10
67.753
 11
66.584
 20
-34.016
 21
-34.238
  0
LINE
  8
0
 10
66.584
 11
65.401
 20
-34.238
 21
-34.457
  0
LINE
  8
0
 10
65.401
 11
64.202
 20
-34.457
 21
-34.674
  0
LINE
  8
0
 10
64.202
 11
62.989
 20
-34.674
 21
-34.889
  0
LINE
  8
0
 10
62.989
 11
61.76
 20
-34.889
 21
-35.1
  0
LINE
  8
0
 10
61.76
 11
60.516
 20
-35.1
 21
-35.308
  0
LINE
  8
0
 10
60.516
 11
59.258
 20
-35.308
 21
-35.514
  0
LINE
  8
0
 10
59.258
 11
57.984
 20
-35.514
 21
-35.716
  0
LINE
  8
0
 10
57.984
 11
56.696
 20
-35.716
 21
-35.914
  0
LINE
  8
0
 10
56.696
 11
55.392
 20
-35.914
 21
-36.109
  0
LINE
  8
0
 10
55.392
 11
54.073
 20
-36.109
 21
-36.301
  0
LINE
  8
0
 10
54.073
 11
52.739
 20
-36.301
 21
-36.488
  0
LINE
  8
0
 10
52.739
 11
51.389
 20
-36.488
 21
-36.671
  0
LINE
  8
0
 10
51.389
 11
50.025
 20
-36.671
 21
-36.85
  0
LINE
  8
0
 10
50.025
 11
48.645
 20
-36.85
 21
-37.025
  0
LINE
  8
0
 10
48.645
 11
47.25
 20
-37.025
 21
-37.195
  0
LINE
  8
0
 10
47.25
 11
45.839
 20
-37.195
 21
-37.361
  0
LINE
  8
0
 10
45.839
 11
44.414
 20
-37.361
 21
-37.522
  0
LINE
  8
0
 10
44.414
 11
42.972
 20
-37.522
 21
-37.677
  0
LINE
  8
0
 10
42.972
 11
41.516
 20
-37.677
 21
-37.828
  0
LINE
  8
0
 10
41.516
 11
40.044
 20
-37.828
 21
-37.974
  0
LINE
  8
0
 10
40.044
 11
38.556
 20
-37.974
 21
-38.114
  0
LINE
  8
0
 10
38.556
 11
37.053
 20
-38.114
 21
-38.248
  0
LINE
  8
0
 10
37.053
 11
35.534
 20
-38.248
 21
-38.377
  0
LINE
  8
0
 10
35.534
 11
34
 20
-38.377
 21
-38.5
  0
LINE
  8
0
 10
34
 11
32.45
 20
-38.5
 21
-38.617
  0
LINE
  8
0
 10
32.45
 11
30.885
 20
-38.617
 21
-38.728
  0
LINE
  8
0
 10
30.885
 11
29.304
 20
-38.728
 21
-38.832
  0
LINE
  8
0
 10
29.304
 11
27.707
 20
-38.832
 21
-38.93
  0
LINE
  8
0
 10
27.707
 11
26.094
 20
-38.93
 21
-39.022
  0
LINE
  8
0
 10
26.094
 11
24.466
 20
-39.022
 21
-39.107
  0
LINE
  8
0
 10
24.466
 11
22.822
 20
-39.107
 21
-39.184
  0
LINE
  8
0
 10
22.822
 11
21.162
 20
-39.184
 21
-39.255
  0
LINE
  8
0
 10
21.162
 11
19.487
 20
-39.255
 21
-39.319
  0
LINE
  8
0
 10
19.487
 11
17.795
 20
-39.319
 21
-39.375
  0
LINE
  8
0
 10
17.795
 11
16.088
 20
-39.375
 21
-39.424
  0
LINE
  8
0
 10
16.088
 11
14.364
 20
-39.424
 21
-39.465
  0
LINE
  8
0
 10
14.364
 11
12.625
 20
-39.465
 21
-39.498
  0
LINE
  8
0
 10
12.625
 11
10.869
 20
-39.498
 21
-39.523
  0
LINE
  8
0
 10
10.869
 11
9.098
 20
-39.523
 21
-39.541
  0
LINE
  8
0
 10
9.098
 11
7.311
 20
-39.541
 21
-39.55
  0
LINE
  8
0
 10
7.311
 11
5.507
 20
-39.55
 21
-39.55
  0
LINE
  8
0
 10
5.507
 11
3.688
 20
-39.55
 21
-39.542
  0
LINE
  8
0
 10
3.688
 11
1.852
 20
-39.542
 21
-39.526
  0
LINE
  8
0
 10
1.852
 11
0.5
 20
-39.526
 21
-39.507
  0
LINE
  8
0
 10
0.5
 11
0.5
 20
-39.507
 21
-37.5
  0
LINE
  8
0
 10
0.5
 11
-0.5
 20
-37.5
 21
-37.5
  0
LINE
  8
0
 10
-0.5
 11
-0.5
 20
-37.5
 21
-39.484
  0
LINE
  8
0
 10
-0.5
 11
-2.496
 20
-39.484
 21
-39.422
  0
LINE
  8
0
 10
-2.496
 11
-4.982
 20
-39.422
 21
-39.187
  0
LINE
  8
0
 10
-4.982
 11
-7.448
 20
-39.187
 21
-38.796
  0
LINE
  8
0
 10
-7.448
 11
-9.885
 20
-38.796
 21
-38.251
  0
LINE
  8
0
 10
-9.885
 11
-12.283
 20
-38.251
 21
-37.554
  0
LINE
  8
0
 10
-12.283
 11
-14.633
 20
-37.554
 21
-36.709
  0
LINE
  8
0
 10
-14.633
 11
-16.925
 20
-36.709
 21
-35.717
  0
LINE
  8
0
 10
-16.925
 11
-19.15
 20
-35.717
 21
-34.583
  0
LINE
  8
0
 10
-19.15
 11
-21.299
 20
-34.583
 21
-33.312
  0
LINE
  8
0
 10
-21.299
 11
-23.364
 20
-33.312
 21
-31.908
  0
LINE
  8
0
 10
-23.364
 11
-25.338
 20
-31.908
 21
-30.378
  0
LINE
  8
0
 10
-25.338
 11
-27.211
 20
-30.378
 21
-28.727
  0
LINE
  8
0
 10
-27.211
 11
-28.977
 20
-28.727
 21
-26.961
  0
LINE
  8
0
 10
-28.977
 11
-30.628
 20
-26.961
 21
-25.088
  0
LINE
  8
0
 10
-30.628
 11
-32.158
 20
-25.088
 21
-23.114
  0
LINE
  8
0
 10
-32.158
 11
-33.562
 20
-23.114
 21
-21.049
  0
LINE
  8
0
 10
-33.562
 11
-34.833
 20
-21.049
 21
-18.9
  0
LINE
  8
0
 10
-34.833
 11
-35.967
 20
-18.9
 21
-16.675
  0
LINE
  8
0
 10
-35.967
 11
-36.959
 20
-16.675
 21
-14.383
  0
LINE
  8
0
 10
-36.959
 11
-37.804
 20
-14.383
 21
-12.033
  0
LINE
  8
0
 10
-37.804
 11
-38.501
 20
-12.033
 21
-9.635
  0
LINE
  8
0
 10
-38.501
 11
-39.046
 20
-9.635
 21
-7.198
  0
LINE
  8
0
 10
-39.046
 11
-39.437
 20
-7.198
 21
-4.732
  0
LINE
  8
0
 10
-39.437
 11
-39.672
 20
-4.732
 21
-2.246
  0
LINE
  8
0
 10
-39.672
 11
-39.75
 20
-2.246
 21
0.25
  0
ENDSEC
  0
SECTION
  2
OBJECTS
  0
DICTIONARY
  0
ENDSEC
  0
EOF
