  0
SECTION
  2
BLOCKS
  0
ENDSEC
  0
SECTION
  2
ENTITIES
  0
LINE
  8
0
 10
-39.25
 11
-39.173
 20
0.25
 21
2.715
  0
LINE
  8
0
 10
-39.173
 11
-38.941
 20
2.715
 21
5.169
  0
LINE
  8
0
 10
-38.941
 11
-38.555
 20
5.169
 21
7.605
  0
LINE
  8
0
 10
-38.555
 11
-38.017
 20
7.605
 21
10.011
  0
LINE
  8
0
 10
-38.017
 11
-37.329
 20
10.011
 21
12.379
  0
LINE
  8
0
 10
-37.329
 11
-36.494
 20
12.379
 21
14.699
  0
LINE
  8
0
 10
-36.494
 11
-35.514
 20
14.699
 21
16.962
  0
LINE
  8
0
 10
-35.514
 11
-34.395
 20
16.962
 21
19.159
  0
LINE
  8
0
 10
-34.395
 11
-33.14
 20
19.159
 21
21.281
  0
LINE
  8
0
 10
-33.14
 11
-31.754
 20
21.281
 21
23.321
  0
LINE
  8
0
 10
-31.754
 11
-30.243
 20
23.321
 21
25.269
  0
LINE
  8
0
 10
-30.243
 11
-28.612
 20
25.269
 21
27.118
  0
LINE
  8
0
 10
-28.612
 11
-26.868
 20
27.118
 21
28.862
  0
LINE
  8
0
 10
-26.868
 11
-25.019
 20
28.862
 21
30.493
  0
LINE
  8
0
 10
-25.019
 11
-23.071
 20
30.493
 21
32.004
  0
LINE
  8
0
 10
-23.071
 11
-21.031
 20
32.004
 21
33.39
  0
LINE
  8
0
 10
-21.031
 11
-18.909
 20
33.39
 21
34.645
  0
LINE
  8
0
 10
-18.909
 11
-16.712
 20
34.645
 21
35.764
  0
LINE
  8
0
 10
-16.712
 11
-14.449
 20
35.764
 21
36.744
  0
LINE
  8
0
 10
-14.449
 11
-12.129
 20
36.744
 21
37.579
  0
LINE
  8
0
 10
-12.129
 11
-9.761
 20
37.579
 21
38.267
  0
LINE
  8
0
 10
-9.761
 11
-7.355
 20
38.267
 21
38.805
  0
LINE
  8
0
 10
-7.355
 11
-4.919
 20
38.805
 21
39.191
  0
LINE
  8
0
 10
-4.919
 11
-2.465
 20
39.191
 21
39.423
  0
LINE
  8
0
 10
-2.465
 11
-0.5
 20
39.423
 21
39.484
  0
LINE
  8
0
 10
-0.5
 11
-0.5
 20
39.484
 21
37.5
  0
LINE
  8
0
 10
-0.5
 11
0.5
 20
37.5
 21
37.5
  0
LINE
  8
0
 10
0.5
 11
0.5
 20
37.5
 21
39.487
  0
LINE
  8
0
 10
0.5
 11
1.852
 20
39.487
 21
39.452
  0
LINE
  8
0
 10
1.852
 11
3.688
 20
39.452
 21
39.399
  0
LINE
  8
0
 10
3.688
 11
5.507
 20
39.399
 21
39.34
  0
LINE
  8
0
 10
5.507
 11
7.311
 20
39.34
 21
39.275
  0
LINE
  8
0
 10
7.311
 11
9.098
 20
39.275
 21
39.206
  0
LINE
  8
0
 10
9.098
 11
10.869
 20
39.206
 21
39.131
  0
LINE
  8
0
 10
10.869
 11
12.625
 20
39.131
 21
39.051
  0
LINE
  8
0
 10
12.625
 11
14.364
 20
39.051
 21
38.966
  0
LINE
  8
0
 10
14.364
 11
16.088
 20
38.966
 21
38.876
  0
LINE
  8
0
 10
16.088
 11
17.795
 20
38.876
 21
38.782
  0
LINE
  8
0
 10
17.795
 11
19.487
 20
38.782
 21
38.682
  0
LINE
  8
0
 10
19.487
 11
21.162
 20
38.682
 21
38.578
  0
LINE
  8
0
 10
21.162
 11
22.822
 20
38.578
 21
38.47
  0
LINE
  8
0
 10
22.822
 11
24.466
 20
38.47
 21
38.357
  0
LINE
  8
0
 10
24.466
 11
26.094
 20
38.357
 21
38.239
  0
LINE
  8
0
 10
26.094
 11
27.707
 20
38.239
 21
38.118
  0
LINE
  8
0
 10
27.707
 11
29.304
 20
38.118
 21
37.992
  0
LINE
  8
0
 10
29.304
 11
30.885
 20
37.992
 21
37.863
  0
LINE
  8
0
 10
30.885
 11
32.45
 20
37.863
 21
37.729
  0
LINE
  8
0
 10
32.45
 11
34
 20
37.729
 21
37.592
  0
LINE
  8
0
 10
34
 11
35.534
 20
37.592
 21
37.451
  0
LINE
  8
0
 10
35.534
 11
37.053
 20
37.451
 21
37.306
  0
LINE
  8
0
 10
37.053
 11
38.556
 20
37.306
 21
37.158
  0
LINE
  8
0
 10
38.556
 11
40.044
 20
37.158
 21
37.006
  0
LINE
  8
0
 10
40.044
 11
41.516
 20
37.006
 21
36.852
  0
LINE
  8
0
 10
41.516
 11
42.972
 20
36.852
 21
36.693
  0
LINE
  8
0
 10
42.972
 11
44.414
 20
36.693
 21
36.532
  0
LINE
  8
0
 10
44.414
 11
45.839
 20
36.532
 21
36.368
  0
LINE
  8
0
 10
45.839
 11
47.25
 20
36.368
 21
36.201
  0
LINE
  8
0
 10
47.25
 11
48.645
 20
36.201
 21
36.03
  0
LINE
  8
0
 10
48.645
 11
50.025
 20
36.03
 21
35.858
  0
LINE
  8
0
 10
50.025
 11
51.389
 20
35.858
 21
35.682
  0
LINE
  8
0
 10
51.389
 11
52.739
 20
35.682
 21
35.504
  0
LINE
  8
0
 10
52.739
 11
54.073
 20
35.504
 21
35.324
  0
LINE
  8
0
 10
54.073
 11
55.392
 20
35.324
 21
35.141
  0
LINE
  8
0
 10
55.392
 11
56.696
 20
35.141
 21
34.956
  0
LINE
  8
0
 10
56.696
 11
57.984
 20
34.956
 21
34.769
  0
LINE
  8
0
 10
57.984
 11
59.258
 20
34.769
 21
34.58
  0
LINE
  8
0
 10
59.258
 11
60.516
 20
34.58
 21
34.389
  0
LINE
  8
0
 10
60.516
 11
61.76
 20
34.389
 21
34.196
  0
LINE
  8
0
 10
61.76
 11
62.989
 20
34.196
 21
34.001
  0
LINE
  8
0
 10
62.989
 11
64.202
 20
34.001
 21
33.805
  0
LINE
  8
0
 10
64.202
 11
65.401
 20
33.805
 21
33.607
  0
LINE
  8
0
 10
65.401
 11
66.584
 20
33.607
 21
33.408
  0
LINE
  8
0
 10
66.584
 11
67.753
 20
33.408
 21
33.207
  0
LINE
  8
0
 10
67.753
 11
68.907
 20
33.207
 21
33.005
  0
LINE
  8
0
 10
68.907
 11
70.046
 20
33.005
 21
32.802
  0
LINE
  8
0
 10
70.046
 11
71.171
 20
32.802
 21
32.598
  0
LINE
  8
0
 10
71.171
 11
72.28
 20
32.598
 21
32.393
  0
LINE
  8
0
 10
72.28
 11
73.375
 20
32.393
 21
32.188
  0
LINE
  8
0
 10
73.375
 11
74.455
 20
32.188
 21
31.981
  0
LINE
  8
0
 10
74.455
 11
75.521
 20
31.981
 21
31.774
  0
LINE
  8
0
 10
75.521
 11
76.571
 20
31.774
 21
31.566
  0
LINE
  8
0
 10
76.571
 11
77.608
 20
31.566
 21
31.358
  0
LINE
  8
0
 10
77.608
 11
78.629
 20
31.358
 21
31.149
  0
LINE
  8
0
 10
78.629
 11
79.636
 20
31.149
 21
30.94
  0
LINE
  8
0
 10
79.636
 11
80.629
 20
30.94
 21
30.731
  0
LINE
  8
0
 10
80.629
 11
81.607
 20
30.731
 21
30.522
  0
LINE
  8
0
 10
81.607
 11
82.571
 20
30.522
 21
30.313
  0
LINE
  8
0
 10
82.571
 11
83.52
 20
30.313
 21
30.104
  0
LINE
  8
0
 10
83.52
 11
84.455
 20
30.104
 21
29.895
  0
LINE
  8
0
 10
84.455
 11
85.375
 20
29.895
 21
29.687
  0
LINE
  8
0
 10
85.375
 11
86.281
 20
29.687
 21
29.479
  0
LINE
  8
0
 10
86.281
 11
87.173
 20
29.479
 21
29.272
  0
LINE
  8
0
 10
87.173
 11
88.051
 20
29.272
 21
29.065
  0
LINE
  8
0
 10
88.051
 11
88.914
 20
29.065
 21
28.859
  0
LINE
  8
0
 10
88.914
 11
89.763
 20
28.859
 21
28.654
  0
LINE
  8
0
 10
89.763
 11
90.598
 20
28.654
 21
28.45
  0
LINE
  8
0
 10
90.598
 11
91.418
 20
28.45
 21
28.247
  0
LINE
  8
0
 10
91.418
 11
92.225
 20
28.247
 21
28.045
  0
LINE
  8
0
 10
92.225
 11
93.017
 20
28.045
 21
27.844
  0
LINE
  8
0
 10
93.017
 11
93.796
 20
27.844
 21
27.644
  0
LINE
  8
0
 10
93.796
 11
94.56
 20
27.644
 21
27.446
  0
LINE
  8
0
 10
94.56
 11
95.311
 20
27.446
 21
27.25
  0
LINE
  8
0
 10
95.311
 11
96.047
 20
27.25
 21
27.055
  0
LINE
  8
0
 10
96.047
 11
96.769
 20
27.055
 21
26.862
  0
LINE
  8
0
 10
96.769
 11
97.478
 20
26.862
 21
26.67
  0
LINE
  8
0
 10
97.478
 11
98.172
 20
26.67
 21
26.481
  0
LINE
  8
0
 10
98.172
 11
98.853
 20
26.481
 21
26.293
  0
LINE
  8
0
 10
98.853
 11
99.52
 20
26.293
 21
26.108
  0
LINE
  8
0
 10
99.52
 11
100.173
 20
26.108
 21
25.925
  0
LINE
  8
0
 10
100.173
 11
100.812
 20
25.925
 21
25.744
  0
LINE
  8
0
 10
100.812
 11
101.438
 20
25.744
 21
25.566
  0
LINE
  8
0
 10
101.438
 11
102.05
 20
25.566
 21
25.39
  0
LINE
  8
0
 10
102.05
 11
102.648
 20
25.39
 21
25.217
  0
LINE
  8
0
 10
102.648
 11
103.233
 20
25.217
 21
25.046
  0
LINE
  8
0
 10
103.233
 11
103.804
 20
25.046
 21
24.879
  0
LINE
  8
0
 10
103.804
 11
104.361
 20
24.879
 21
24.714
  0
LINE
  8
0
 10
104.361
 11
104.905
 20
24.714
 21
24.552
  0
LINE
  8
0
 10
104.905
 11
105.435
 20
24.552
 21
24.394
  0
LINE
  8
0
 10
105.435
 11
105.952
 20
24.394
 21
24.238
  0
LINE
  8
0
 10
105.952
 11
106.455
 20
24.238
 21
24.086
  0
LINE
  8
0
 10
106.455
 11
106.945
 20
24.086
 21
23.937
  0
LINE
  8
0
 10
106.945
 11
107.421
 20
23.937
 21
23.792
  0
LINE
  8
0
 10
107.421
 11
107.884
 20
23.792
 21
23.65
  0
LINE
  8
0
 10
107.884
 11
108.334
 20
23.65
 21
23.513
  0
LINE
  8
0
 10
108.334
 11
108.77
 20
23.513
 21
23.378
  0
LINE
  8
0
 10
108.77
 11
109.194
 20
23.378
 21
23.248
  0
LINE
  8
0
 10
109.194
 11
109.603
 20
23.248
 21
23.122
  0
LINE
  8
0
 10
109.603
 11
110
 20
23.122
 21
23
  0
LINE
  8
0
 10
110
 11
110.03
 20
23
 21
22.985
  0
LINE
  8
0
 10
110.03
 11
110.06
 20
22.985
 21
22.969
  0
LINE
  8
0
 10
110.06
 11
110.15
 20
22.969
 21
22.918
  0
LINE
  8
0
 10
110.15
 11
110.18
 20
22.918
 21
22.899
  0
LINE
  8
0
 10
110.18
 11
110.21
 20
22.899
 21
22.88
  0
LINE
  8
0
 10
110.21
 11
110.239
 20
22.88
 21
22.861
  0
LINE
  8
0
 10
110.239
 11
110.299
 20
22.861
 21
22.821
  0
LINE
  8
0
 10
110.299
 11
110.329
 20
22.821
 21
22.799
  0
LINE
  8
0
 10
110.329
 11
110.358
 20
22.799
 21
22.778
  0
LINE
  8
0
 10
110.358
 11
110.388
 20
22.778
 21
22.755
  0
LINE
  8
0
 10
110.388
 11
110.417
 20
22.755
 21
22.733
  0
LINE
  8
0
 10
110.417
 11
110.447
 20
22.733
 21
22.709
  0
LINE
  8
0
 10
110.447
 11
110.476
 20
22.709
 21
22.685
  0
LINE
  8
0
 10
110.476
 11
110.505
 20
22.685
 21
22.661
  0
LINE
  8
0
 10
110.505
 11
110.534
 20
22.661
 21
22.636
  0
LINE
  8
0
 10
110.534
 11
110.592
 20
22.636
 21
22.584
  0
LINE
  8
0
 10
110.592
 11
110.621
 20
22.584
 21
22.557
  0
LINE
  8
0
 10
110.621
 11
110.649
 20
22.557
 21
22.53
  0
LINE
  8
0
 10
110.649
 11
110.678
 20
22.53
 21
22.502
  0
LINE
  8
0
 10
110.678
 11
110.706
 20
22.502
 21
22.474
  0
LINE
  8
0
 10
110.706
 11
110.762
 20
22.474
 21
22.416
  0
LINE
  8
0
 10
110.762
 11
110.79
 20
22.416
 21
22.386
  0
LINE
  8
0
 10
110.79
 11
110.818
 20
22.386
 21
22.356
  0
LINE
  8
0
 10
110.818
 11
110.846
 20
22.356
 21
22.325
  0
LINE
  8
0
 10
110.846
 11
110.873
 20
22.325
 21
22.293
  0
LINE
  8
0
 10
110.873
 11
110.9
 20
22.293
 21
22.262
  0
LINE
  8
0
 10
110.9
 11
110.954
 20
22.262
 21
22.196
  0
LINE
  8
0
 10
110.954
 11
110.981
 20
22.196
 21
22.163
  0
LINE
  8
0
 10
110.981
 11
111.007
 20
22.163
 21
22.129
  0
LINE
  8
0
 10
111.007
 11
111.033
 20
22.129
 21
22.095
  0
LINE
  8
0
 10
111.033
 11
111.059
 20
22.095
 21
22.06
  0
LINE
  8
0
 10
111.059
 11
111.085
 20
22.06
 21
22.024
  0
LINE
  8
0
 10
111.085
 11
111.111
 20
22.024
 21
21.988
  0
LINE
  8
0
 10
111.111
 11
111.136
 20
21.988
 21
21.952
  0
LINE
  8
0
 10
111.136
 11
111.161
 20
21.952
 21
21.915
  0
LINE
  8
0
 10
111.161
 11
111.186
 20
21.915
 21
21.878
  0
LINE
  8
0
 10
111.186
 11
111.21
 20
21.878
 21
21.84
  0
LINE
  8
0
 10
111.21
 11
111.235
 20
21.84
 21
21.802
  0
LINE
  8
0
 10
111.235
 11
111.259
 20
21.802
 21
21.763
  0
LINE
  8
0
 10
111.259
 11
111.283
 20
21.763
 21
21.724
  0
LINE
  8
0
 10
111.283
 11
111.306
 20
21.724
 21
21.684
  0
LINE
  8
0
 10
111.306
 11
111.352
 20
21.684
 21
21.604
  0
LINE
  8
0
 10
111.352
 11
111.375
 20
21.604
 21
21.563
  0
LINE
  8
0
 10
111.375
 11
111.397
 20
21.563
 21
21.521
  0
LINE
  8
0
 10
111.397
 11
111.419
 20
21.521
 21
21.479
  0
LINE
  8
0
 10
111.419
 11
111.441
 20
21.479
 21
21.437
  0
LINE
  8
0
 10
111.441
 11
111.463
 20
21.437
 21
21.394
  0
LINE
  8
0
 10
111.463
 11
111.484
 20
21.394
 21
21.351
  0
LINE
  8
0
 10
111.484
 11
111.504
 20
21.351
 21
21.307
  0
LINE
  8
0
 10
111.504
 11
111.525
 20
21.307
 21
21.263
  0
LINE
  8
0
 10
111.525
 11
111.545
 20
21.263
 21
21.218
  0
LINE
  8
0
 10
111.545
 11
111.565
 20
21.218
 21
21.173
  0
LINE
  8
0
 10
111.565
 11
111.584
 20
21.173
 21
21.128
  0
LINE
  8
0
 10
111.584
 11
111.603
 20
21.128
 21
21.082
  0
LINE
  8
0
 10
111.603
 11
111.622
 20
21.082
 21
21.036
  0
LINE
  8
0
 10
111.622
 11
111.658
 20
21.036
 21
20.942
  0
LINE
  8
0
 10
111.658
 11
111.675
 20
20.942
 21
20.895
  0
LINE
  8
0
 10
111.675
 11
111.693
 20
20.895
 21
20.847
  0
LINE
  8
0
 10
111.693
 11
111.709
 20
20.847
 21
20.799
  0
LINE
  8
0
 10
111.709
 11
111.726
 20
20.799
 21
20.75
  0
LINE
  8
0
 10
111.726
 11
111.741
 20
20.75
 21
20.701
  0
LINE
  8
0
 10
111.741
 11
111.757
 20
20.701
 21
20.652
  0
LINE
  8
0
 10
111.757
 11
111.772
 20
20.652
 21
20.602
  0
LINE
  8
0
 10
111.772
 11
111.787
 20
20.602
 21
20.551
  0
LINE
  8
0
 10
111.787
 11
111.801
 20
20.551
 21
20.501
  0
LINE
  8
0
 10
111.801
 11
111.815
 20
20.501
 21
20.45
  0
LINE
  8
0
 10
111.815
 11
111.828
 20
20.45
 21
20.398
  0
LINE
  8
0
 10
111.828
 11
111.841
 20
20.398
 21
20.347
  0
LINE
  8
0
 10
111.841
 11
111.853
 20
20.347
 21
20.295
  0
LINE
  8
0
 10
111.853
 11
111.865
 20
20.295
 21
20.242
  0
LINE
  8
0
 10
111.865
 11
111.877
 20
20.242
 21
20.189
  0
LINE
  8
0
 10
111.877
 11
111.888
 20
20.189
 21
20.136
  0
LINE
  8
0
 10
111.888
 11
111.899
 20
20.136
 21
20.082
  0
LINE
  8
0
 10
111.899
 11
111.909
 20
20.082
 21
20.028
  0
LINE
  8
0
 10
111.909
 11
111.927
 20
20.028
 21
19.92
  0
LINE
  8
0
 10
111.927
 11
111.936
 20
19.92
 21
19.865
  0
LINE
  8
0
 10
111.936
 11
111.944
 20
19.865
 21
19.809
  0
LINE
  8
0
 10
111.944
 11
111.951
 20
19.809
 21
19.754
  0
LINE
  8
0
 10
111.951
 11
111.959
 20
19.754
 21
19.698
  0
LINE
  8
0
 10
111.959
 11
111.965
 20
19.698
 21
19.641
  0
LINE
  8
0
 10
111.965
 11
111.971
 20
19.641
 21
19.584
  0
LINE
  8
0
 10
111.971
 11
111.976
 20
19.584
 21
19.527
  0
LINE
  8
0
 10
111.976
 11
111.981
 20
19.527
 21
19.47
  0
LINE
  8
0
 10
111.981
 11
111.986
 20
19.47
 21
19.412
  0
LINE
  8
0
 10
111.986
 11
111.989
 20
19.412
 21
19.354
  0
LINE
  8
0
 10
111.989
 11
111.993
 20
19.354
 21
19.296
  0
LINE
  8
0
 10
111.993
 11
111.995
 20
19.296
 21
19.238
  0
LINE
  8
0
 10
111.995
 11
111.997
 20
19.238
 21
19.179
  0
LINE
  8
0
 10
111.997
 11
111.999
 20
19.179
 21
19.119
  0
LINE
  8
0
 10
111.999
 11
112
 20
19.119
 21
19.06
  0
LINE
  8
0
 10
112
 11
112
 20
19.06
 21
-18.56
  0
LINE
  8
0
 10
112
 11
111.999
 20
-18.56
 21
-18.619
  0
LINE
  8
0
 10
111.999
 11
111.997
 20
-18.619
 21
-18.679
  0
LINE
  8
0
 10
111.997
 11
111.995
 20
-18.679
 21
-18.738
  0
LINE
  8
0
 10
111.995
 11
111.993
 20
-18.738
 21
-18.796
  0
LINE
  8
0
 10
111.993
 11
111.989
 20
-18.796
 21
-18.854
  0
LINE
  8
0
 10
111.989
 11
111.986
 20
-18.854
 21
-18.912
  0
LINE
  8
0
 10
111.986
 11
111.981
 20
-18.912
 21
-18.97
  0
LINE
  8
0
 10
111.981
 11
111.976
 20
-18.97
 21
-19.027
  0
LINE
  8
0
 10
111.976
 11
111.971
 20
-19.027
 21
-19.084
  0
LINE
  8
0
 10
111.971
 11
111.965
 20
-19.084
 21
-19.141
  0
LINE
  8
0
 10
111.965
 11
111.959
 20
-19.141
 21
-19.198
  0
LINE
  8
0
 10
111.959
 11
111.951
 20
-19.198
 21
-19.254
  0
LINE
  8
0
 10
111.951
 11
111.944
 20
-19.254
 21
-19.309
  0
LINE
  8
0
 10
111.944
 11
111.936
 20
-19.309
 21
-19.365
  0
LINE
  8
0
 10
111.936
 11
111.927
 20
-19.365
 21
-19.42
  0
LINE
  8
0
 10
111.927
 11
111.909
 20
-19.42
 21
-19.528
  0
LINE
  8
0
 10
111.909
 11
111.899
 20
-19.528
 21
-19.582
  0
LINE
  8
0
 10
111.899
 11
111.888
 20
-19.582
 21
-19.636
  0
LINE
  8
0
 10
111.888
 11
111.877
 20
-19.636
 21
-19.689
  0
LINE
  8
0
 10
111.877
 11
111.865
 20
-19.689
 21
-19.742
  0
LINE
  8
0
 10
111.865
 11
111.853
 20
-19.742
 21
-19.795
  0
LINE
  8
0
 10
111.853
 11
111.841
 20
-19.795
 21
-19.847
  0
LINE
  8
0
 10
111.841
 11
111.828
 20
-19.847
 21
-19.898
  0
LINE
  8
0
 10
111.828
 11
111.815
 20
-19.898
 21
-19.95
  0
LINE
  8
0
 10
111.815
 11
111.801
 20
-19.95
 21
-20.001
  0
LINE
  8
0
 10
111.801
 11
111.787
 20
-20.001
 21
-20.051
  0
LINE
  8
0
 10
111.787
 11
111.772
 20
-20.051
 21
-20.102
  0
LINE
  8
0
 10
111.772
 11
111.757
 20
-20.102
 21
-20.152
  0
LINE
  8
0
 10
111.757
 11
111.741
 20
-20.152
 21
-20.201
  0
LINE
  8
0
 10
111.741
 11
111.726
 20
-20.201
 21
-20.25
  0
LINE
  8
0
 10
111.726
 11
111.709
 20
-20.25
 21
-20.299
  0
LINE
  8
0
 10
111.709
 11
111.693
 20
-20.299
 21
-20.347
  0
LINE
  8
0
 10
111.693
 11
111.675
 20
-20.347
 21
-20.395
  0
LINE
  8
0
 10
111.675
 11
111.658
 20
-20.395
 21
-20.442
  0
LINE
  8
0
 10
111.658
 11
111.622
 20
-20.442
 21
-20.536
  0
LINE
  8
0
 10
111.622
 11
111.603
 20
-20.536
 21
-20.582
  0
LINE
  8
0
 10
111.603
 11
111.584
 20
-20.582
 21
-20.628
  0
LINE
  8
0
 10
111.584
 11
111.565
 20
-20.628
 21
-20.673
  0
LINE
  8
0
 10
111.565
 11
111.545
 20
-20.673
 21
-20.718
  0
LINE
  8
0
 10
111.545
 11
111.525
 20
-20.718
 21
-20.763
  0
LINE
  8
0
 10
111.525
 11
111.504
 20
-20.763
 21
-20.807
  0
LINE
  8
0
 10
111.504
 11
111.484
 20
-20.807
 21
-20.851
  0
LINE
  8
0
 10
111.484
 11
111.463
 20
-20.851
 21
-20.894
  0
LINE
  8
0
 10
111.463
 11
111.441
 20
-20.894
 21
-20.937
  0
LINE
  8
0
 10
111.441
 11
111.419
 20
-20.937
 21
-20.979
  0
LINE
  8
0
 10
111.419
 11
111.397
 20
-20.979
 21
-21.021
  0
LINE
  8
0
 10
111.397
 11
111.375
 20
-21.021
 21
-21.063
  0
LINE
  8
0
 10
111.375
 11
111.352
 20
-21.063
 21
-21.104
  0
LINE
  8
0
 10
111.352
 11
111.306
 20
-21.104
 21
-21.184
  0
LINE
  8
0
 10
111.306
 11
111.283
 20
-21.184
 21
-21.224
  0
LINE
  8
0
 10
111.283
 11
111.259
 20
-21.224
 21
-21.263
  0
LINE
  8
0
 10
111.259
 11
111.235
 20
-21.263
 21
-21.302
  0
LINE
  8
0
 10
111.235
 11
111.21
 20
-21.302
 21
-21.34
  0
LINE
  8
0
 10
111.21
 11
111.186
 20
-21.34
 21
-21.378
  0
LINE
  8
0
 10
111.186
 11
111.161
 20
-21.378
 21
-21.415
  0
LINE
  8
0
 10
111.161
 11
111.136
 20
-21.415
 21
-21.452
  0
LINE
  8
0
 10
111.136
 11
111.111
 20
-21.452
 21
-21.488
  0
LINE
  8
0
 10
111.111
 11
111.085
 20
-21.488
 21
-21.524
  0
LINE
  8
0
 10
111.085
 11
111.059
 20
-21.524
 21
-21.56
  0
LINE
  8
0
 10
111.059
 11
111.033
 20
-21.56
 21
-21.595
  0
LINE
  8
0
 10
111.033
 11
111.007
 20
-21.595
 21
-21.629
  0
LINE
  8
0
 10
111.007
 11
110.981
 20
-21.629
 21
-21.663
  0
LINE
  8
0
 10
110.981
 11
110.954
 20
-21.663
 21
-21.696
  0
LINE
  8
0
 10
110.954
 11
110.9
 20
-21.696
 21
-21.762
  0
LINE
  8
0
 10
110.9
 11
110.873
 20
-21.762
 21
-21.793
  0
LINE
  8
0
 10
110.873
 11
110.846
 20
-21.793
 21
-21.825
  0
LINE
  8
0
 10
110.846
 11
110.818
 20
-21.825
 21
-21.856
  0
LINE
  8
0
 10
110.818
 11
110.79
 20
-21.856
 21
-21.886
  0
LINE
  8
0
 10
110.79
 11
110.762
 20
-21.886
 21
-21.916
  0
LINE
  8
0
 10
110.762
 11
110.706
 20
-21.916
 21
-21.974
  0
LINE
  8
0
 10
110.706
 11
110.678
 20
-21.974
 21
-22.002
  0
LINE
  8
0
 10
110.678
 11
110.649
 20
-22.002
 21
-22.03
  0
LINE
  8
0
 10
110.649
 11
110.621
 20
-22.03
 21
-22.057
  0
LINE
  8
0
 10
110.621
 11
110.592
 20
-22.057
 21
-22.084
  0
LINE
  8
0
 10
110.592
 11
110.534
 20
-22.084
 21
-22.136
  0
LINE
  8
0
 10
110.534
 11
110.505
 20
-22.136
 21
-22.161
  0
LINE
  8
0
 10
110.505
 11
110.476
 20
-22.161
 21
-22.185
  0
LINE
  8
0
 10
110.476
 11
110.447
 20
-22.185
 21
-22.209
  0
LINE
  8
0
 10
110.447
 11
110.417
 20
-22.209
 21
-22.233
  0
LINE
  8
0
 10
110.417
 11
110.388
 20
-22.233
 21
-22.255
  0
LINE
  8
0
 10
110.388
 11
110.358
 20
-22.255
 21
-22.278
  0
LINE
  8
0
 10
110.358
 11
110.329
 20
-22.278
 21
-22.299
  0
LINE
  8
0
 10
110.329
 11
110.299
 20
-22.299
 21
-22.321
  0
LINE
  8
0
 10
110.299
 11
110.239
 20
-22.321
 21
-22.361
  0
LINE
  8
0
 10
110.239
 11
110.21
 20
-22.361
 21
-22.38
  0
LINE
  8
0
 10
110.21
 11
110.18
 20
-22.38
 21
-22.399
  0
LINE
  8
0
 10
110.18
 11
110.15
 20
-22.399
 21
-22.418
  0
LINE
  8
0
 10
110.15
 11
110.06
 20
-22.418
 21
-22.469
  0
LINE
  8
0
 10
110.06
 11
110.03
 20
-22.469
 21
-22.485
  0
LINE
  8
0
 10
110.03
 11
110
 20
-22.485
 21
-22.5
  0
LINE
  8
0
 10
110
 11
109.603
 20
-22.5
 21
-22.622
  0
LINE
  8
0
 10
109.603
 11
109.194
 20
-22.622
 21
-22.748
  0
LINE
  8
0
 10
109.194
 11
108.77
 20
-22.748
 21
-22.878
  0
LINE
  8
0
 10
108.77
 11
108.334
 20
-22.878
 21
-23.013
  0
LINE
  8
0
 10
108.334
 11
107.884
 20
-23.013
 21
-23.15
  0
LINE
  8
0
 10
107.884
 11
107.421
 20
-23.15
 21
-23.292
  0
LINE
  8
0
 10
107.421
 11
106.945
 20
-23.292
 21
-23.437
  0
LINE
  8
0
 10
106.945
 11
106.455
 20
-23.437
 21
-23.586
  0
LINE
  8
0
 10
106.455
 11
105.952
 20
-23.586
 21
-23.738
  0
LINE
  8
0
 10
105.952
 11
105.435
 20
-23.738
 21
-23.894
  0
LINE
  8
0
 10
105.435
 11
104.905
 20
-23.894
 21
-24.052
  0
LINE
  8
0
 10
104.905
 11
104.361
 20
-24.052
 21
-24.214
  0
LINE
  8
0
 10
104.361
 11
103.804
 20
-24.214
 21
-24.379
  0
LINE
  8
0
 10
103.804
 11
103.233
 20
-24.379
 21
-24.546
  0
LINE
  8
0
 10
103.233
 11
102.648
 20
-24.546
 21
-24.717
  0
LINE
  8
0
 10
102.648
 11
102.05
 20
-24.717
 21
-24.89
  0
LINE
  8
0
 10
102.05
 11
101.438
 20
-24.89
 21
-25.066
  0
LINE
  8
0
 10
101.438
 11
100.812
 20
-25.066
 21
-25.244
  0
LINE
  8
0
 10
100.812
 11
100.173
 20
-25.244
 21
-25.425
  0
LINE
  8
0
 10
100.173
 11
99.52
 20
-25.425
 21
-25.608
  0
LINE
  8
0
 10
99.52
 11
98.853
 20
-25.608
 21
-25.793
  0
LINE
  8
0
 10
98.853
 11
98.172
 20
-25.793
 21
-25.981
  0
LINE
  8
0
 10
98.172
 11
97.478
 20
-25.981
 21
-26.17
  0
LINE
  8
0
 10
97.478
 11
96.769
 20
-26.17
 21
-26.362
  0
LINE
  8
0
 10
96.769
 11
96.047
 20
-26.362
 21
-26.555
  0
LINE
  8
0
 10
96.047
 11
95.311
 20
-26.555
 21
-26.75
  0
LINE
  8
0
 10
95.311
 11
94.56
 20
-26.75
 21
-26.946
  0
LINE
  8
0
 10
94.56
 11
93.796
 20
-26.946
 21
-27.144
  0
LINE
  8
0
 10
93.796
 11
93.017
 20
-27.144
 21
-27.344
  0
LINE
  8
0
 10
93.017
 11
92.225
 20
-27.344
 21
-27.545
  0
LINE
  8
0
 10
92.225
 11
91.418
 20
-27.545
 21
-27.747
  0
LINE
  8
0
 10
91.418
 11
90.598
 20
-27.747
 21
-27.95
  0
LINE
  8
0
 10
90.598
 11
89.763
 20
-27.95
 21
-28.154
  0
LINE
  8
0
 10
89.763
 11
88.914
 20
-28.154
 21
-28.359
  0
LINE
  8
0
 10
88.914
 11
88.051
 20
-28.359
 21
-28.565
  0
LINE
  8
0
 10
88.051
 11
87.173
 20
-28.565
 21
-28.772
  0
LINE
  8
0
 10
87.173
 11
86.281
 20
-28.772
 21
-28.979
  0
LINE
  8
0
 10
86.281
 11
85.375
 20
-28.979
 21
-29.187
  0
LINE
  8
0
 10
85.375
 11
84.455
 20
-29.187
 21
-29.395
  0
LINE
  8
0
 10
84.455
 11
83.52
 20
-29.395
 21
-29.604
  0
LINE
  8
0
 10
83.52
 11
82.571
 20
-29.604
 21
-29.813
  0
LINE
  8
0
 10
82.571
 11
81.607
 20
-29.813
 21
-30.022
  0
LINE
  8
0
 10
81.607
 11
80.629
 20
-30.022
 21
-30.231
  0
LINE
  8
0
 10
80.629
 11
79.636
 20
-30.231
 21
-30.44
  0
LINE
  8
0
 10
79.636
 11
78.629
 20
-30.44
 21
-30.649
  0
LINE
  8
0
 10
78.629
 11
77.608
 20
-30.649
 21
-30.858
  0
LINE
  8
0
 10
77.608
 11
76.571
 20
-30.858
 21
-31.066
  0
LINE
  8
0
 10
76.571
 11
75.521
 20
-31.066
 21
-31.274
  0
LINE
  8
0
 10
75.521
 11
74.455
 20
-31.274
 21
-31.481
  0
LINE
  8
0
 10
74.455
 11
73.375
 20
-31.481
 21
-31.688
  0
LINE
  8
0
 10
73.375
 11
72.28
 20
-31.688
 21
-31.893
  0
LINE
  8
0
 10
72.28
 11
71.171
 20
-31.893
 21
-32.098
  0
LINE
  8
0
 10
71.171
 11
70.046
 20
-32.098
 21
-32.302
  0
LINE
  8
0
 10
70.046
 11
68.907
 20
-32.302
 21
-32.505
  0
LINE
  8
0
 10
68.907
 11
67.753
 20
-32.505
 21
-32.707
  0
LINE
  8
0
 10
67.753
 11
66.584
 20
-32.707
 21
-32.908
  0
LINE
  8
0
 10
66.584
 11
65.401
 20
-32.908
 21
-33.107
  0
LINE
  8
0
 10
65.401
 11
64.202
 20
-33.107
 21
-33.305
  0
LINE
  8
0
 10
64.202
 11
62.989
 20
-33.305
 21
-33.501
  0
LINE
  8
0
 10
62.989
 11
61.76
 20
-33.501
 21
-33.696
  0
LINE
  8
0
 10
61.76
 11
60.516
 20
-33.696
 21
-33.889
  0
LINE
  8
0
 10
60.516
 11
59.258
 20
-33.889
 21
-34.08
  0
LINE
  8
0
 10
59.258
 11
57.984
 20
-34.08
 21
-34.269
  0
LINE
  8
0
 10
57.984
 11
56.696
 20
-34.269
 21
-34.456
  0
LINE
  8
0
 10
56.696
 11
55.392
 20
-34.456
 21
-34.641
  0
LINE
  8
0
 10
55.392
 11
54.073
 20
-34.641
 21
-34.824
  0
LINE
  8
0
 10
54.073
 11
52.739
 20
-34.824
 21
-35.004
  0
LINE
  8
0
 10
52.739
 11
51.389
 20
-35.004
 21
-35.182
  0
LINE
  8
0
 10
51.389
 11
50.025
 20
-35.182
 21
-35.358
  0
LINE
  8
0
 10
50.025
 11
48.645
 20
-35.358
 21
-35.53
  0
LINE
  8
0
 10
48.645
 11
47.25
 20
-35.53
 21
-35.701
  0
LINE
  8
0
 10
47.25
 11
45.839
 20
-35.701
 21
-35.868
  0
LINE
  8
0
 10
45.839
 11
44.414
 20
-35.868
 21
-36.032
  0
LINE
  8
0
 10
44.414
 11
42.972
 20
-36.032
 21
-36.193
  0
LINE
  8
0
 10
42.972
 11
41.516
 20
-36.193
 21
-36.352
  0
LINE
  8
0
 10
41.516
 11
40.044
 20
-36.352
 21
-36.506
  0
LINE
  8
0
 10
40.044
 11
38.556
 20
-36.506
 21
-36.658
  0
LINE
  8
0
 10
38.556
 11
37.053
 20
-36.658
 21
-36.806
  0
LINE
  8
0
 10
37.053
 11
35.534
 20
-36.806
 21
-36.951
  0
LINE
  8
0
 10
35.534
 11
34
 20
-36.951
 21
-37.092
  0
LINE
  8
0
 10
34
 11
32.45
 20
-37.092
 21
-37.229
  0
LINE
  8
0
 10
32.45
 11
30.885
 20
-37.229
 21
-37.363
  0
LINE
  8
0
 10
30.885
 11
29.304
 20
-37.363
 21
-37.492
  0
LINE
  8
0
 10
29.304
 11
27.707
 20
-37.492
 21
-37.618
  0
LINE
  8
0
 10
27.707
 11
26.094
 20
-37.618
 21
-37.739
  0
LINE
  8
0
 10
26.094
 11
24.466
 20
-37.739
 21
-37.857
  0
LINE
  8
0
 10
24.466
 11
22.822
 20
-37.857
 21
-37.97
  0
LINE
  8
0
 10
22.822
 11
21.162
 20
-37.97
 21
-38.078
  0
LINE
  8
0
 10
21.162
 11
19.487
 20
-38.078
 21
-38.182
  0
LINE
  8
0
 10
19.487
 11
17.795
 20
-38.182
 21
-38.282
  0
LINE
  8
0
 10
17.795
 11
16.088
 20
-38.282
 21
-38.376
  0
LINE
  8
0
 10
16.088
 11
14.364
 20
-38.376
 21
-38.466
  0
LINE
  8
0
 10
14.364
 11
12.625
 20
-38.466
 21
-38.551
  0
LINE
  8
0
 10
12.625
 11
10.869
 20
-38.551
 21
-38.631
  0
LINE
  8
0
 10
10.869
 11
9.098
 20
-38.631
 21
-38.706
  0
LINE
  8
0
 10
9.098
 11
7.311
 20
-38.706
 21
-38.775
  0
LINE
  8
0
 10
7.311
 11
5.507
 20
-38.775
 21
-38.84
  0
LINE
  8
0
 10
5.507
 11
3.688
 20
-38.84
 21
-38.899
  0
LINE
  8
0
 10
3.688
 11
1.852
 20
-38.899
 21
-38.952
  0
LINE
  8
0
 10
1.852
 11
0.5
 20
-38.952
 21
-38.987
  0
LINE
  8
0
 10
0.5
 11
0.5
 20
-38.987
 21
-37
  0
LINE
  8
0
 10
0.5
 11
-0.5
 20
-37
 21
-37
  0
LINE
  8
0
 10
-0.5
 11
-0.5
 20
-37
 21
-38.984
  0
LINE
  8
0
 10
-0.5
 11
-2.465
 20
-38.984
 21
-38.923
  0
LINE
  8
0
 10
-2.465
 11
-4.919
 20
-38.923
 21
-38.691
  0
LINE
  8
0
 10
-4.919
 11
-7.355
 20
-38.691
 21
-38.305
  0
LINE
  8
0
 10
-7.355
 11
-9.761
 20
-38.305
 21
-37.767
  0
LINE
  8
0
 10
-9.761
 11
-12.129
 20
-37.767
 21
-37.079
  0
LINE
  8
0
 10
-12.129
 11
-14.449
 20
-37.079
 21
-36.244
  0
LINE
  8
0
 10
-14.449
 11
-16.712
 20
-36.244
 21
-35.264
  0
LINE
  8
0
 10
-16.712
 11
-18.909
 20
-35.264
 21
-34.145
  0
LINE
  8
0
 10
-18.909
 11
-21.031
 20
-34.145
 21
-32.89
  0
LINE
  8
0
 10
-21.031
 11
-23.071
 20
-32.89
 21
-31.504
  0
LINE
  8
0
 10
-23.071
 11
-25.019
 20
-31.504
 21
-29.993
  0
LINE
  8
0
 10
-25.019
 11
-26.868
 20
-29.993
 21
-28.362
  0
LINE
  8
0
 10
-26.868
 11
-28.612
 20
-28.362
 21
-26.618
  0
LINE
  8
0
 10
-28.612
 11
-30.243
 20
-26.618
 21
-24.769
  0
LINE
  8
0
 10
-30.243
 11
-31.754
 20
-24.769
 21
-22.821
  0
LINE
  8
0
 10
-31.754
 11
-33.14
 20
-22.821
 21
-20.781
  0
LINE
  8
0
 10
-33.14
 11
-34.395
 20
-20.781
 21
-18.659
  0
LINE
  8
0
 10
-34.395
 11
-35.514
 20
-18.659
 21
-16.462
  0
LINE
  8
0
 10
-35.514
 11
-36.494
 20
-16.462
 21
-14.199
  0
LINE
  8
0
 10
-36.494
 11
-37.329
 20
-14.199
 21
-11.879
  0
LINE
  8
0
 10
-37.329
 11
-38.017
 20
-11.879
 21
-9.511
  0
LINE
  8
0
 10
-38.017
 11
-38.555
 20
-9.511
 21
-7.105
  0
LINE
  8
0
 10
-38.555
 11
-38.941
 20
-7.105
 21
-4.669
  0
LINE
  8
0
 10
-38.941
 11
-39.173
 20
-4.669
 21
-2.215
  0
LINE
  8
0
 10
-39.173
 11
-39.25
 20
-2.215
 21
0.25
  0
ENDSEC
  0
SECTION
  2
OBJECTS
  0
DICTIONARY
  0
ENDSEC
  0
EOF
